<svg xmlns="http://www.w3.org/2000/svg" xmlns:xlink="http://www.w3.org/1999/xlink" xml:space="preserve" id="Слой_1" x="0" y="0" style="enable-background:new 0 0 96 124" version="1.1" viewBox="0 0 96 124"><style>.st1{fill:#2871ab}</style><defs><path id="SVGID_1_" d="M-843.5-334H939.4v792H-843.5z"/></defs><clipPath id="SVGID_2_"><use xlink:href="#SVGID_1_" style="overflow:visible"/></clipPath><g style="clip-path:url(#SVGID_2_)"><path d="M27 89.4c-1.2-.7-2.5-1-5.2-1H17V108h3.6v-7.4h1.2c2.7 0 3.9-.2 5-.8 1.7-1 2.7-3 2.7-5.3 0-2.2-.9-4-2.5-5.1m-2.8 7.4c-.6.2-1.4.3-2.5.3h-1.1v-5.2h1.2c1.2 0 1.7.1 2.3.2 1.1.3 1.7 1.2 1.7 2.5 0 1.1-.6 1.9-1.6 2.2M32.2 108h3.6V91.9h6.7v-3.5H32.2zM53.6 91.6c2.3 0 3.8.7 5.1 2.5h4c-.7-1.6-1.4-2.5-2.6-3.6-1.9-1.5-4.2-2.4-6.6-2.4-5.5 0-10 4.5-10.1 10.1 0 5.7 4.6 10.2 10.3 10.2 4 0 7.5-2.2 9-5.8h-4.3c-1.6 1.7-3 2.3-4.8 2.3-3.6 0-6.6-3-6.6-6.7 0-1.6.6-3.2 1.6-4.4 1.3-1.5 3-2.2 5-2.2M75.1 88.4l-4 10-3.8-10h-3.9l6 14.5-2 5.1h3.4L79 88.4zM20.6 78c0-2.4 1.9-4.5 3.3-5.7 2.8 2.1 6.7 2 9.4-.2 1 .8 2.3 2.1 3.1 3.8v5.3h3.2v-9.3c0-4.5 2-6.9 3.2-8 3.3 2.6 7.9 2.7 11.3.2 1.2 1.1 3 3.5 3 7.8v9.3h3.2V74c.2-2.5 1.5-4.9 3.5-6.3 2.5 1.7 5.9 1.8 8.4.1 2.2 1.6 3.4 4.1 3.4 6.8V81h3.2v-6.5c0-4.6-2.4-7.5-4.3-9 2.3-3.5 1.4-8.3-2.1-10.6-.1-.1-.3-.2-.4-.3v-4.3c0-8.7-5.7-13.2-9.3-15.2 4.6-4.3 4.7-11.5.4-16.1s-11.6-4.5-16.1-.2c-.7.7-1.4 1.5-1.9 2.4-5.6-2.9-12.4-.7-15.3 4.9-2.1 4-1.6 8.8 1.2 12.4-2.2 1.6-5.3 5.2-5.4 12.9 0 3.3-.1 5.9-.1 7.8-3.9 1.6-5.8 6.1-4.1 10 .1.3.3.6.4.9-1.9 1.6-4.4 4.5-4.4 8.1v3.1h3.2V78zm27.8-15.4c-3.4 0-6.1-2.7-6.1-6.1s2.7-6.1 6.1-6.1c3.4 0 6.1 2.7 6.1 6.1 0 3.4-2.7 6.1-6.1 6.1m19.7 3.3c-2.5 0-4.5-2-4.5-4.5s2-4.5 4.5-4.5 4.5 2 4.5 4.5-2.1 4.5-4.5 4.5m.6-15.4v3.2H68c-4.2 0-7.7 3.4-7.7 7.7 0 1.4.4 2.8 1.1 4-.7.6-1.4 1.2-2 1.9-.6-2.2-1.8-4.1-3.4-5.6 2.6-4 1.8-9.3-1.9-12.3-.5-6.5-3.4-9.7-5.5-11.1.3-.4.6-.7.8-1.1 3.2 1.6 6.9 1.7 10.1.2 2.6.9 9.2 4.5 9.2 13.1M54.8 18.8c4.5 0 8.2 3.7 8.2 8.2s-3.7 8.2-8.2 8.2c-1.4 0-2.8-.4-4-1 1.1-4-.1-8.3-3.2-11.2 1.5-2.6 4.2-4.2 7.2-4.2m-15 4.2c4.5 0 8.2 3.7 8.2 8.2s-3.7 8.2-8.2 8.2-8.2-3.7-8.2-8.2c0-4.5 3.7-8.2 8.2-8.2m-6.4 17.6c3.9 2.7 9.2 2.7 13.1-.1 1.2.6 3.6 2.5 4.4 7.1-4.9-1.3-10 1.6-11.3 6.5-.7 2.5-.3 5.1 1.1 7.3-1.6 1.4-3.9 4.3-4.2 9.2-.4-.4-.8-.7-1.1-1 1.9-3.8.5-8.4-3.3-10.3-1-.5-2.2-.8-3.3-.9 0-1.6 0-3.9.1-7.2-.1-7.1 3-9.8 4.5-10.6m-4.9 21c2.5 0 4.5 2 4.5 4.5s-2 4.5-4.5 4.5-4.5-2-4.5-4.5 2-4.5 4.5-4.5" class="st1"/></g></svg>
